<svg width="90" height="36" viewBox="0 0 90 36" fill="none" xmlns="http://www.w3.org/2000/svg">
<path fill-rule="evenodd" clip-rule="evenodd" d="M89.9874 36H0V0H90V36H89.9874Z" fill="#0058AB"/>
<path fill-rule="evenodd" clip-rule="evenodd" d="M1.8 18C1.8 26.8498 19.9044 34.2001 45.0063 34.2001C70.1082 34.2001 88.2 26.8498 88.2 18C88.2 9.15035 70.0956 1.80005 45.0063 1.80005C19.9179 1.80005 1.8 9.15035 1.8 18Z" fill="#FBD914"/>
<path d="M41.8032 23.4045C42.0867 23.8068 42.3972 24.1848 42.7572 24.525H33.0192C33.0192 24.147 32.6448 23.3793 32.2317 22.7745C31.3487 21.4706 30.4673 20.1656 29.5875 18.8595V23.4045C29.5875 23.7825 29.5875 24.147 29.781 24.525H21.6675C21.861 24.147 21.861 23.7816 21.861 23.4045V12.6C21.861 12.222 21.861 11.8566 21.6675 11.4795H29.781C29.5875 11.8575 29.5875 12.222 29.5875 12.6V17.3214C29.5875 17.3214 32.1795 14.0229 32.7735 13.2543C33.2253 12.6756 33.7797 11.8566 33.7797 11.4795H42.2415C41.661 11.8575 41.0166 12.537 40.4874 13.1661L37.3914 16.8561C37.3914 16.8561 41.2875 22.6611 41.8032 23.4036V23.4045ZM44.3574 12.6V23.4036C44.3574 23.7816 44.3574 24.1461 44.1639 24.5241H59.8239V20.8971C59.4369 21.0861 59.0625 21.0861 58.6755 21.0861H52.0839V19.3743H58.4172V16.6293H52.0839V14.904H58.6755C59.0625 14.904 59.4369 14.904 59.8239 15.0804V11.4669H44.1639C44.3574 11.8566 44.3574 12.2229 44.3574 12.6ZM81.5202 23.4036C81.6498 23.8185 81.8685 24.1965 82.1529 24.5241H73.665C73.7037 24.1461 73.5615 23.7807 73.4067 23.4036C73.4067 23.4036 73.278 23.1012 73.0971 22.6602L73.0197 22.4712H68.1309L68.0535 22.6728C68.0535 22.6728 67.9113 23.0382 67.7826 23.4162C67.6539 23.7942 67.5117 24.1587 67.563 24.5367H60.8688C61.1421 24.2064 61.3479 23.8257 61.4745 23.4162L65.4867 12.6126C65.628 12.2346 65.7702 11.8692 65.7189 11.4921H77.0319C76.9284 11.8701 77.1345 12.2346 77.2767 12.6126C77.6115 13.4316 81.2367 22.6728 81.5202 23.4036ZM71.9487 19.7136L70.7625 16.6923C70.657 16.4129 70.5707 16.1267 70.5042 15.8355C70.4526 16.1275 70.3749 16.4142 70.272 16.6923C70.2333 16.8183 69.7302 18.1404 69.1497 19.7136H71.9487ZM17.8227 11.4786H9C9.1935 11.8566 9.1935 12.222 9.1935 12.6V23.4036C9.1935 23.7816 9.1935 24.1461 9 24.5241H17.8236C17.6301 24.1461 17.6301 23.7807 17.6301 23.4036V12.6C17.6301 12.222 17.6301 11.8566 17.8236 11.4795L17.8227 11.4786ZM78.8112 12.5118C78.7725 11.5929 79.5078 10.8243 80.4492 10.7991H80.5662C81.5202 10.7865 82.3068 11.5173 82.3203 12.4488V12.5118C82.3455 13.4568 81.585 14.2488 80.6049 14.2749C79.6374 14.3001 78.8247 13.5567 78.7986 12.6C78.8112 12.5748 78.8112 12.537 78.8112 12.5118ZM79.1595 12.5118C79.1595 13.2678 79.7922 13.8843 80.5662 13.8843C81.3402 13.8843 81.972 13.2669 81.972 12.5118C81.972 11.7558 81.3402 11.1393 80.5662 11.1393C79.8174 11.1141 79.1856 11.6811 79.1595 12.411V12.5118ZM80.2179 13.5315H79.9083V11.4669H80.6949C80.8701 11.4693 81.0374 11.5406 81.1603 11.6655C81.2833 11.7903 81.3522 11.9586 81.3519 12.1338C81.3519 12.3858 81.2106 12.6126 80.9784 12.7386L81.4302 13.5315H81.0819L80.6688 12.8016H80.2179V13.5315ZM80.2179 12.5118H80.6436C80.8497 12.5244 81.0306 12.3732 81.0306 12.1716C81.0306 11.97 80.8884 11.7936 80.6823 11.7936H80.2179V12.5118Z" fill="#0058A3"/>
</svg>
