<svg width="24" height="24" viewBox="0 0 24 24" fill="none" xmlns="http://www.w3.org/2000/svg">
<path fill-rule="evenodd" clip-rule="evenodd" d="M13.98 15.395C12.6975 16.322 11.1128 16.7319 9.54169 16.543C7.97054 16.3541 6.52821 15.5803 5.50196 14.3758C4.47571 13.1712 3.94087 11.6242 4.00397 10.043C4.06707 8.46185 4.72347 6.96244 5.84244 5.84347C6.9614 4.72451 8.46081 4.06811 10.042 4.00501C11.6232 3.94191 13.1701 4.47675 14.3747 5.503C15.5793 6.52924 16.3531 7.97158 16.542 9.54272C16.7309 11.1139 16.321 12.6985 15.394 13.981L19.996 18.582L18.582 19.996L13.98 15.395V15.395ZM14.587 10.294C14.5957 10.8634 14.491 11.4288 14.2792 11.9573C14.0673 12.4858 13.7524 12.9669 13.3529 13.3726C12.9533 13.7783 12.4771 14.1005 11.9518 14.3204C11.4266 14.5403 10.8629 14.6535 10.2935 14.6535C9.72407 14.6535 9.16035 14.5403 8.63512 14.3204C8.10988 14.1005 7.63364 13.7783 7.23409 13.3726C6.83454 12.9669 6.51966 12.4858 6.3078 11.9573C6.09593 11.4288 5.99129 10.8634 5.99998 10.294C6.01719 9.16666 6.47711 8.0913 7.28042 7.30015C8.08374 6.509 9.16599 6.06555 10.2935 6.06555C11.421 6.06555 12.5032 6.509 13.3065 7.30015C14.1099 8.0913 14.5698 9.16666 14.587 10.294V10.294Z" fill="#481111"/>
</svg>
