<svg width="40" height="40" viewBox="0 0 40 40" fill="none" xmlns="http://www.w3.org/2000/svg">
<path fill-rule="evenodd" clip-rule="evenodd" d="M18.9994 12H18.4373L18.1451 12.4802L14.7881 17.9972H9.71912L10.0298 19.2397L11.651 25.7248C11.985 27.0603 13.1849 27.9972 14.5615 27.9972H25.4384C26.815 27.9972 28.0149 27.0603 28.3488 25.7248L29.9701 19.2397L30.2807 17.9972H25.2112L21.8538 12.4802L21.5618 12H18.9994ZM22.8701 17.9972L20.4376 14H19.5615L17.1292 17.9972H22.8701ZM13.5914 25.2397L12.2808 19.9972H27.7192L26.4086 25.2397C26.3545 25.4561 26.2297 25.6481 26.0539 25.7854C25.8781 25.9226 25.6615 25.9972 25.4385 25.9972H14.5615C14.3385 25.9972 14.1219 25.9226 13.9462 25.7853C13.7704 25.6481 13.6456 25.456 13.5915 25.2397H13.5914Z" fill="black"/>
</svg>
