<svg width="40" height="40" viewBox="0 0 40 40" fill="none" xmlns="http://www.w3.org/2000/svg">
<path fill-rule="evenodd" clip-rule="evenodd" d="M18.6724 14.4678C18.9458 14.1866 19.3528 13.9971 20.0217 13.9971C20.4188 13.9971 20.7267 14.0809 20.9746 14.2196C21.2156 14.3544 21.4125 14.5507 21.568 14.8389L21.5713 14.8449C21.7107 15.099 21.8083 15.4634 21.8083 15.9852C21.8083 16.7708 21.6037 17.2303 21.3287 17.513L21.3239 17.518C21.048 17.8056 20.6449 17.9944 19.9899 17.9944C19.6042 17.9944 19.2937 17.9124 19.0339 17.7703C18.7951 17.6359 18.5997 17.441 18.4451 17.1556C18.2997 16.8806 18.2032 16.5036 18.2032 15.9852C18.2032 15.195 18.4067 14.741 18.6724 14.4678ZM20.0217 11.9961C18.9383 11.9961 17.9677 12.3223 17.2379 13.0727C16.5003 13.831 16.2021 14.8537 16.2021 15.9852C16.2021 16.7508 16.3452 17.4682 16.6794 18.0972L16.6825 18.103C17.0074 18.705 17.4675 19.187 18.0602 19.5184L18.0664 19.5219C18.6538 19.8449 19.3032 19.9955 19.9899 19.9955C21.0717 19.9955 22.0383 19.6622 22.7654 18.9059C23.506 18.1432 23.8094 17.1199 23.8094 15.9852C23.8094 15.2223 23.6673 14.5068 23.3274 13.8856C23.0027 13.285 22.543 12.8041 21.9514 12.4731C21.3656 12.1455 20.7126 11.9961 20.0217 11.9961ZM14.4691 24.8582C14.7674 24.2779 15.1919 23.8309 15.7591 23.501C16.3173 23.1819 17.0425 22.9961 17.98 22.9961H22.02C22.9575 22.9961 23.6826 23.1819 24.2409 23.501C24.8081 23.8309 25.2326 24.2779 25.5309 24.8582C25.834 25.4478 26 26.1518 26 26.9961V27.9961H28V26.9961C28 25.8839 27.7795 24.8577 27.3096 23.9438C26.8424 23.0341 26.1229 22.2784 25.2374 21.7669C24.3095 21.2354 23.2217 20.9961 22.02 20.9961H17.98C16.8655 20.9961 15.7317 21.2081 14.7575 21.7698C13.8593 22.2913 13.1647 23.0213 12.6904 23.9438C12.2205 24.8577 12 25.8839 12 26.9961V27.9961H14V26.9961C14 26.1518 14.166 25.4478 14.4691 24.8582Z" fill="black"/>
</svg>
