<svg width="40" height="40" viewBox="0 0 40 40" fill="none" xmlns="http://www.w3.org/2000/svg">
<path fill-rule="evenodd" clip-rule="evenodd" d="M20.336 13.5206C22.2336 11.6238 25.3096 11.624 27.2069 13.5213C28.2067 14.5212 28.6796 15.8501 28.6259 17.1576C28.6151 20.2138 26.4184 22.8654 24.4892 24.6366C23.4926 25.5517 22.5004 26.2923 21.7593 26.8036C21.3879 27.0598 21.0771 27.2601 20.8574 27.3973C20.7475 27.466 20.6601 27.519 20.5992 27.5555C20.5687 27.5737 20.5448 27.5879 20.5279 27.5978L20.5079 27.6094L20.502 27.6129L20.5001 27.614C20.5001 27.614 20.4989 27.6147 19.9999 26.748C19.501 27.6147 19.5005 27.6144 19.5005 27.6144L19.4979 27.6129L19.4919 27.6094L19.472 27.5978C19.4551 27.5879 19.4312 27.5737 19.4007 27.5555C19.3397 27.519 19.2524 27.466 19.1425 27.3973C18.9227 27.2601 18.612 27.0598 18.2405 26.8036C17.4995 26.2923 16.5073 25.5517 15.5106 24.6366C13.5815 22.8654 11.3848 20.2139 11.374 17.1577C11.3202 15.8501 11.7931 14.5212 12.793 13.5213C14.6905 11.6238 17.767 11.6238 19.6646 13.5213L19.9993 13.856L20.3353 13.5213L20.336 13.5206ZM19.9999 26.748L19.5005 27.6144L19.9999 27.9019L20.4989 27.6147L19.9999 26.748ZM19.9999 25.573C20.1727 25.462 20.384 25.3226 20.6236 25.1573C21.3125 24.6821 22.2267 23.9988 23.1366 23.1634C25.0157 21.4381 26.6259 19.2919 26.6259 17.1351V17.1121L26.627 17.0892C26.6626 16.3122 26.3844 15.5273 25.7926 14.9355C24.6762 13.819 22.866 13.819 21.7495 14.9355L21.7481 14.9369L19.9965 16.6817L18.2504 14.9355C17.1339 13.819 15.3237 13.819 14.2072 14.9355C13.6155 15.5273 13.3372 16.3122 13.3729 17.0892L13.3739 17.1121V17.1351C13.3739 19.2919 14.9842 21.4381 16.8632 23.1634C17.7731 23.9988 18.6874 24.6821 19.3762 25.1573C19.6159 25.3226 19.8271 25.462 19.9999 25.573Z" fill="black"/>
</svg>
