<svg width="40" height="40" viewBox="0 0 40 40" fill="none" xmlns="http://www.w3.org/2000/svg">
<path fill-rule="evenodd" clip-rule="evenodd" d="M9 12H24V15H27.0246L31.0039 20.6848V26H28.3472C27.9254 27.3056 26.6999 28.25 25.2539 28.25C23.8079 28.25 22.5824 27.3056 22.1607 26H18.2563C17.8346 27.3056 16.6091 28.25 15.1631 28.25C13.7171 28.25 12.4916 27.3056 12.0698 26H9V12ZM12.0698 24C12.4916 22.6944 13.7171 21.75 15.1631 21.75C16.6091 21.75 17.8346 22.6944 18.2563 24H22V14H11V24H12.0698ZM24 22.0007C24.3972 21.8347 24.8234 21.7494 25.2539 21.75C26.6999 21.75 27.9254 22.6944 28.3472 24H29.0039V21.3152L25.9833 17H24V22.0007ZM15.163 23.75C14.4727 23.75 13.913 24.3096 13.913 25C13.913 25.6904 14.4727 26.25 15.163 26.25C15.8534 26.25 16.413 25.6904 16.413 25C16.413 24.3096 15.8534 23.75 15.163 23.75ZM25.2539 23.75C24.5635 23.75 24.0039 24.3096 24.0039 25C24.0039 25.6904 24.5635 26.25 25.2539 26.25C25.9443 26.25 26.5039 25.6904 26.5039 25C26.5039 24.3096 25.9443 23.75 25.2539 23.75Z" fill="black"/>
</svg>
